
<svg xmlns="http://www.w3.org/2000/svg" version="1.1" id="svg10" xml:space="preserve" width="328.5" height="328.5" viewBox="0 0 328.5 328.49999"><defs id="defs14"><clipPath clipPathUnits="userSpaceOnUse" id="clipPath26"><path d="M 0,595.28 H 841.89 V 0 H 0 Z" id="path24"></path></clipPath></defs><g id="g18" transform="matrix(1.3333333,0,0,-1.3333333,0,793.70667)"><g id="g20" transform="translate(-297.6891,174.64032)"><g id="g22" clip-path="url(#clipPath26)"><g id="g28" transform="translate(537.9951,174.3337)"><path d="m 0,0 h -234.306 c -3.313,0 -6,2.687 -6,6 v 234.306 c 0,3.314 2.687,6 6,6 H 0 c 3.313,0 6,-2.686 6,-6 V 6 C 6,2.687 3.313,0 0,0" style="fill:#ff2c2e;fill-opacity:1;fill-rule:nonzero;stroke:none" id="path30"></path></g><g id="g32" transform="translate(433.2803,361.0256)"><path d="m 0,0 h -75.126 c -1.688,0 -3.058,-1.369 -3.058,-3.058 v -121.003 c 0,-1.666 1.351,-3.017 3.017,-3.017 h 31.375 c 1.667,0 3.017,1.351 3.017,3.017 v 87.408 h 30.749 1.47 c 13.422,0 24.303,-10.881 24.303,-24.303 v -1.985 -61.12 c 0,-1.666 1.351,-3.017 3.017,-3.017 h 31.527 c 1.666,0 3.017,1.351 3.017,3.017 v 70.753 C 53.308,-23.867 29.44,0 0,0" style="fill:#ffffff;fill-opacity:1;fill-rule:nonzero;stroke:none" id="path34"></path></g></g></g></g></svg>