

<svg version="1.0" xmlns="http://www.w3.org/2000/svg" width="2600px" height="2600px" viewBox="0 0 2600 2600" preserveAspectRatio="xMidYMid meet">
 <g fill="#31506f">
  <path d="M96.8 2589.9 l-96.8 -5.8 2.9 -1288.4 4.3 -1288.4 1287 -4.3 1288.4 -2.9 10.1 190.7 c13 262.9 2.9 2374.7 -11.6 2390.6 -11.6 11.6 -2289.4 18.8 -2484.4 8.7z m611 -312 l0 -105.4 -134.3 1.4 c-121.3 0 -143 -4.3 -219.6 -43.3 -57.8 -30.3 -92.4 -59.2 -109.8 -93.9 l-27.4 -50.6 0 86.7 c0 117 20.2 180.6 73.7 235.4 59.2 59.2 105.4 72.2 277.3 73.7 l140.1 1.4 0 -105.4z m1531.1 73.7 c93.9 -47.7 130 -109.8 130 -225.3 l0 -93.9 -36.1 39 c-63.6 69.3 -143 95.3 -294.7 95.3 -73.7 0 -161.8 -7.2 -193.6 -17.3 -73.7 -21.7 -169 -109.8 -169 -157.4 -1.4 -30.3 -5.8 -26 -31.8 23.1 -60.7 114.1 -145.9 153.1 -343.8 156 -124.2 2.9 -145.9 -1.4 -221 -37.6 -60.7 -30.3 -91 -56.3 -111.2 -93.9 l-27.4 -53.4 -1.4 199.3 0 197.9 618.2 0 c612.4 0 618.2 0 681.8 -31.8z m-1577.3 -430.4 l46.2 -28.9 0 -163.2 c0 -186.3 -11.6 -216.7 -101.1 -242.7 -47.7 -14.4 -63.6 -13 -111.2 11.6 l-54.9 28.9 -4.3 177.7 c-2.9 124.2 1.4 183.4 14.4 197.9 43.3 52 140.1 60.7 210.9 18.8z m700.6 15.9 c73.7 -28.9 82.3 -50.6 82.3 -215.2 0 -176.2 -13 -206.6 -93.9 -234 -37.6 -13 -63.6 -13 -96.8 -1.4 -91 31.8 -98.2 47.7 -98.2 223.9 0 88.1 5.8 167.6 11.6 176.2 37.6 54.9 122.8 78 195 50.6z m730.9 -2.9 c24.6 -8.7 52 -27.4 59.2 -41.9 8.7 -14.4 14.4 -98.2 14.4 -184.9 0 -144.4 -2.9 -158.9 -31.8 -186.3 -72.2 -66.4 -212.3 -47.7 -242.7 31.8 -18.8 47.7 -18.8 268.7 0 316.3 14.4 39 76.6 79.4 124.2 80.9 17.3 0 50.6 -7.2 76.6 -15.9z m-417.4 -509.9 c0 -10.1 11.6 -34.7 27.4 -53.4 l27.4 -34.7 -56.3 -36.1 c-104 -65 -117 -115.6 -111.2 -429 4.3 -312 13 -335.1 138.7 -397.2 57.8 -28.9 89.6 -33.2 219.6 -33.2 128.6 0 160.3 5.8 213.8 33.2 83.8 44.8 131.4 125.7 143 239.8 13 138.7 -30.3 238.3 -131.4 299 -33.2 20.2 -37.6 27.4 -17.3 27.4 14.4 0 52 14.4 82.3 31.8 46.2 26 56.3 39 56.3 75.1 0 24.6 -10.1 63.6 -23.1 88.1 -15.9 31.8 -17.3 44.8 -4.3 49.1 8.7 2.9 41.9 27.4 72.2 54.9 l56.3 50.6 0 -504.1 c0 -501.2 0 -505.6 -33.2 -553.2 -17.3 -27.4 -54.9 -62.1 -82.3 -78 -47.7 -28.9 -75.1 -30.3 -624 -34.7 l-574.9 -4.3 0 112.7 0 112.7 148.8 0 c161.8 0 225.3 21.7 299 101.1 36.1 39 36.1 39 43.3 395.8 l7.2 358.2 47.7 53.4 c24.6 28.9 46.2 62.1 46.2 73.7 0 11.6 7.2 21.7 14.4 21.7 8.7 0 14.4 -8.7 14.4 -20.2z m-703.4 -40.4 c24.6 -39 24.6 -40.4 -4.3 -40.4 -23.1 0 -28.9 10.1 -28.9 46.2 0 24.6 1.4 41.9 4.3 39 2.9 -2.9 15.9 -23.1 28.9 -44.8z m-663 -75.1 c21.7 -13 72.2 -33.2 111.2 -41.9 56.3 -13 69.3 -21.7 60.7 -39 -7.2 -11.6 -13 -143 -15.9 -291.8 l-4.3 -271.6 -70.8 0 -72.2 0 0 -108.3 0 -108.3 65 0 65 0 0 -108.3 c0 -99.7 -2.9 -108.3 -28.9 -108.3 -47.7 0 -111.2 39 -154.6 96.8 l-40.4 52 -4.3 521.4 c-2.9 515.7 -2.9 521.4 23.1 478.1 15.9 -24.6 44.8 -56.3 66.4 -70.8z m941.8 -52 l78 0 0 -265.8 0 -267.2 -37.6 -28.9 c-52 -40.4 -147.3 -40.4 -199.3 0 l-37.6 28.9 0 287.4 0 287.4 59.2 -20.2 c33.2 -11.6 95.3 -21.7 137.2 -21.7z m-413.1 -299 c0 -102.6 -4.3 -209.4 -8.7 -238.3 -10.1 -54.9 -10.1 -54.9 -79.4 -54.9 l-70.8 0 0 206.6 c0 180.6 2.9 210.9 26 229.7 30.3 27.4 57.8 37.6 101.1 39 31.8 1.4 31.8 -1.4 31.8 -182z m1181.6 140.1 c24.6 -15.9 46.2 -33.2 46.2 -39 0 -7.2 -63.6 -10.1 -140.1 -7.2 l-141.6 5.8 40.4 34.7 c50.6 43.3 128.6 46.2 195 5.8z m-121.3 -260 c83.8 -13 153.1 -56.3 153.1 -95.3 0 -31.8 -73.7 -78 -125.7 -78 -73.7 0 -132.9 40.4 -143 96.8 -8.7 49.1 0 91 18.8 91 5.8 0 50.6 -5.8 96.8 -14.4z m-1074.7 -505.6 l0 -115.6 -72.2 0 c-88.1 0 -93.9 10.1 -79.4 137.2 l10.1 93.9 70.8 0 70.8 0 0 -115.6z"></path>
 </g>
 <g fill="#ffffff">
  <path d="M338 2410.8 c-62.1 -17.3 -132.9 -93.9 -150.2 -160.3 -10.1 -34.7 -14.4 -390 -11.6 -983.7 l4.3 -930.2 40.4 -52 c52 -67.9 112.7 -99.7 196.4 -102.6 l66.4 -1.4 4.3 154.6 4.3 156 -66.4 0 -65 0 0 65 0 65 72.2 0 72.2 0 0 264.3 c0 236.9 2.9 267.2 28.9 310.6 34.7 56.3 101.1 99.7 176.2 111.2 30.3 5.8 54.9 15.9 54.9 23.1 0 17.3 -4.3 17.3 -88.1 -10.1 -143 -47.7 -317.8 -4.3 -385.7 95.3 -30.3 44.8 -31.8 62.1 -31.8 287.4 0 290.3 10.1 319.2 131.4 379.9 106.9 54.9 225.3 60.7 335.1 18.8 23.1 -10.1 24.6 2.9 24.6 157.4 l0 167.6 -183.4 -1.4 c-102.6 0 -205.1 -7.2 -229.7 -14.4z"></path>
  <path d="M895.6 1877.8 c0 -301.9 0 -553.2 0 -559 0 -7.2 26 -13 57.8 -15.9 l57.8 -4.3 2.9 -312 4.3 -312 40.4 -30.3 c56.3 -41.9 209.4 -41.9 267.2 1.4 l39 28.9 4.3 313.4 2.9 312 -76.6 0 c-92.4 0 -158.9 20.2 -223.9 67.9 -80.9 60.7 -89.6 93.9 -89.6 343.8 0 195 4.3 232.6 28.9 281.7 73.7 143 377 180.6 522.9 65 76.6 -62.1 86.7 -104 80.9 -361.1 -4.3 -273 -13 -291.8 -135.8 -353.9 l-70.8 -36.1 50.6 -4.3 50.6 -4.3 -7.2 -338 c-7.2 -335.1 -7.2 -338 -43.3 -375.6 -85.2 -92.4 -262.9 -132.9 -385.7 -89.6 l-62.1 21.7 0 -173.3 0 -171.9 618.2 4.3 c592.2 4.3 618.2 5.8 667.3 34.7 27.4 15.9 65 50.6 82.3 78 l33.2 47.7 0 963.4 0 963.4 -33.2 49.1 c-17.3 27.4 -60.7 63.6 -96.8 82.3 -63.6 31.8 -67.9 31.8 -725.1 31.8 l-661.6 0 0 -548.9z m1314.4 206.6 c122.8 -65 131.4 -92.4 127.1 -390 l-4.3 -248.4 -43.3 -44.8 c-52 -56.3 -98.2 -80.9 -171.9 -95.3 l-56.3 -10.1 41.9 -21.7 c56.3 -28.9 93.9 -62.1 106.9 -96.8 8.7 -23.1 1.4 -34.7 -39 -59.2 l-49.1 -31.8 -34.7 33.2 c-43.3 44.8 -140.1 69.3 -213.8 56.3 -72.2 -11.6 -140.1 -73.7 -140.1 -127.1 0 -37.6 0 -37.6 127.1 -37.6 153.1 0 219.6 -17.3 283.1 -73.7 99.7 -86.7 117 -216.7 43.3 -333.7 -52 -80.9 -134.3 -118.4 -265.8 -118.4 -127.1 -1.4 -225.3 37.6 -277.3 111.2 -30.3 41.9 -33.2 65 -37.6 274.4 -4.3 206.6 -1.4 234 24.6 288.9 34.7 70.8 105.4 122.8 180.6 135.8 50.6 7.2 88.1 33.2 50.6 33.2 -33.2 0 -117 76.6 -137.2 124.2 -24.6 57.8 -27.4 417.4 -4.3 499.8 15.9 59.2 83.8 122.8 160.3 151.7 26 8.7 93.9 17.3 150.2 17.3 86.7 1.4 117 -5.8 179.1 -37.6z"></path>
  <path d="M1902.3 1970.2 c-21.7 -11.6 -46.2 -37.6 -53.4 -57.8 -18.8 -47.7 -18.8 -353.9 0 -403 31.8 -83.8 248.4 -108.3 326.4 -34.7 33.2 31.8 34.7 40.4 34.7 232.6 0 111.2 -5.8 213.8 -14.4 228.2 -30.3 56.3 -213.8 78 -293.2 34.7z"></path>
  <path d="M1743.4 885.4 c-11.6 -11.6 -13 -144.4 -1.4 -186.3 26 -96.8 258.6 -115.6 335.1 -27.4 41.9 50.6 40.4 98.2 -7.2 151.7 -31.8 34.7 -59.2 47.7 -127.1 57.8 -101.1 15.9 -186.3 18.8 -199.3 4.3z"></path>
  <path d="M491.1 1991.9 c-98.2 -30.3 -101.1 -36.1 -101.1 -280.2 l0 -221 39 -26 c50.6 -33.2 160.3 -43.3 226.8 -20.2 88.1 28.9 96.8 54.9 92.4 290.3 l-4.3 206.6 -43.3 24.6 c-56.3 33.2 -145.9 44.8 -209.4 26z"></path>
  <path d="M1235 1993.3 c-62.1 -14.4 -108.3 -46.2 -117 -79.4 -4.3 -15.9 -4.3 -115.6 -2.9 -222.4 4.3 -189.2 5.8 -193.6 41.9 -221 75.1 -56.3 235.4 -50.6 296.1 10.1 33.2 33.2 34.7 43.3 34.7 236.9 0 169 -4.3 205.1 -24.6 225.3 -44.8 44.8 -151.7 69.3 -228.2 50.6z"></path>
  <path d="M833.4 1305.8 c-5.8 -5.8 -10.1 -34.7 -10.1 -63.6 0 -53.4 -1.4 -53.4 -65 -62.1 -119.9 -13 -122.8 -21.7 -122.8 -309.1 l0 -249.9 88.1 0 86.7 0 -4.3 -60.7 -4.3 -62.1 -86.7 -7.2 -85.2 -7.2 -1.4 -151.7 0 -151.7 117 -4.3 118.4 -4.3 10.1 524.3 c5.8 288.9 7.2 543.1 5.8 566.2 -5.8 41.9 -27.4 62.1 -46.2 43.3z"></path>
 </g>
</svg>